<?xml version="1.0" encoding="UTF-8" standalone="no"?><!DOCTYPE svg PUBLIC "-//W3C//DTD SVG 1.1//EN" "http://www.w3.org/Graphics/SVG/1.1/DTD/svg11.dtd"><svg width="100%" height="100%" viewBox="0 0 625 188" version="1.1" xmlns="http://www.w3.org/2000/svg" xmlns:xlink="http://www.w3.org/1999/xlink" xml:space="preserve" xmlns:serif="http://www.serif.com/" style="fill-rule:evenodd;clip-rule:evenodd;stroke-linejoin:round;stroke-miterlimit:2;"><rect id="頁面-1" serif:id="頁面 1" x="0" y="0" width="624.108" height="187.943" style="fill:none;"/><clipPath id="_clip1"><rect x="0" y="0" width="624.108" height="187.943"/></clipPath><g clip-path="url(#_clip1)"><g id="圖層-1" serif:id="圖層 1"><path d="M126,2.56c-31.367,1.938 -46.846,18.633 -49.733,44.063c-3.183,28.083 7.129,43.954 37.637,56.983c10.221,4.367 20.554,8.462 30.854,12.65c5.15,2.087 10.287,4.204 15.4,6.383c4.092,1.75 9.483,3.033 11.812,7.163c2.358,4.192 1.067,9.333 -2.179,12.662c-4.875,4.992 -13.162,4.917 -20.062,4.842c-1.054,-0.012 -2.071,-0.025 -3.046,-0.021c-26.179,0.175 -74.637,0.071 -102.05,0.071c-1.562,12.983 -26.425,23.583 -28.317,39.338c42.725,0 128.762,2.033 168.625,-0.683c28.708,-1.95 42.454,-19.696 45.708,-48.2c2.679,-23.462 -6.604,-38.867 -31.737,-50.154c-9.142,-4.104 -18.517,-7.654 -27.85,-11.283c-10.875,-4.221 -22.929,-7.567 -31.892,-15.337c-4.996,-4.338 -3.958,-12.733 2,-15.608c6.288,-3.025 12.779,-3.288 19.729,-3.487c8.087,-0.225 16.171,-0.313 24.258,-0.338c9.104,-0.025 42.829,0.208 50.587,0.204l0,-41.096c-11.633,-0.233 -22.996,-0.358 -34.163,-0.358c-25.962,0 -50.854,0.671 -75.583,2.208Z" style="fill:url(#_Linear2);fill-rule:nonzero;"/><path d="M501.667,29.473c0.904,1.721 12.263,27.513 24.679,55.804c15.371,-2.996 33.333,-3.358 54.133,-0.175c-11.258,-26.121 -22.479,-52.054 -33.8,-77.9c-1.429,-3.267 -7.104,-6.288 -11,-6.558c-12.292,-0.842 -24.725,-0.883 -37.008,0.025c-3.646,0.271 -8.871,3.983 -10.163,7.354c-9.725,25.3 -18.654,50.908 -28.363,77.913c34.738,-5.196 26.521,-38.546 41.521,-56.463" style="fill:#1aa4bc;fill-rule:nonzero;"/><path d="M549.507,138.136c5.946,13.583 10,22.862 10,22.862l-0.229,-0.004c2.204,4.921 4.337,9.892 6.612,14.771c2.062,4.429 7.258,10.017 11.413,10.375c14.692,1.263 29.558,0.492 46.804,0.492c-9.808,-22.838 -19.429,-45.263 -29,-67.542c-14.383,0.35 -30.742,4.963 -45.6,19.046" style="fill:#1aa4bc;fill-rule:nonzero;"/><path d="M303.933,187.943c-7.075,-92.621 81.413,-107.367 81.413,-107.367l-0,-44.542c-121.525,30.087 -81.412,151.908 -81.412,151.908Z" style="fill:url(#_Linear3);fill-rule:nonzero;"/><path d="M374.527,186.956l0,-186.421l30.721,0c9.029,0 16.35,7.321 16.35,16.35l0,170.071l-47.071,0Z" style="fill:#1aa4bc;fill-rule:nonzero;"/><path d="M303.608,0.536l0,186.421l-30.717,0c-9.029,0 -16.35,-7.321 -16.35,-16.35l0,-170.071l47.067,0Z" style="fill:#1aa4bc;fill-rule:nonzero;"/><path d="M448.738,187.856l45.329,0c0,0 15.012,-90.058 109.279,-82.854c0,0 -19.608,-6.458 -45.15,-6.458c-38.696,0 -91.013,14.813 -109.458,89.313Z" style="fill:url(#_Linear4);fill-rule:nonzero;"/><path d="M0,0.535l0,186.421l47.067,0l0,-170.067c0,-9.033 -7.317,-16.354 -16.35,-16.354l-30.717,-0Z" style="fill:url(#_Linear5);fill-rule:nonzero;"/></g></g><defs><linearGradient id="_Linear2" x1="0" y1="0" x2="1" y2="0" gradientUnits="userSpaceOnUse" gradientTransform="matrix(872.541745,0,0,872.541745,-473.54428,93.887585)"><stop offset="0" style="stop-color:#3b57a5;stop-opacity:1"/><stop offset="0.02" style="stop-color:#3b57a5;stop-opacity:1"/><stop offset="0.87" style="stop-color:#19adc7;stop-opacity:1"/><stop offset="1" style="stop-color:#19adc7;stop-opacity:1"/></linearGradient><linearGradient id="_Linear3" x1="0" y1="0" x2="1" y2="0" gradientUnits="userSpaceOnUse" gradientTransform="matrix(-97.928516,117.98617,-117.98617,-97.928516,394.600964,31.456631)"><stop offset="0" style="stop-color:#adcf31;stop-opacity:1"/><stop offset="0.87" style="stop-color:#19adc7;stop-opacity:1"/><stop offset="1" style="stop-color:#19adc7;stop-opacity:1"/></linearGradient><linearGradient id="_Linear4" x1="0" y1="0" x2="1" y2="0" gradientUnits="userSpaceOnUse" gradientTransform="matrix(261.92929,-191.1376,191.1376,261.92929,315.104103,282.713789)"><stop offset="0" style="stop-color:#e9461a;stop-opacity:1"/><stop offset="0.02" style="stop-color:#e9461a;stop-opacity:1"/><stop offset="0.42" style="stop-color:#94b4df;stop-opacity:1"/><stop offset="0.87" style="stop-color:#153f98;stop-opacity:1"/><stop offset="1" style="stop-color:#153f98;stop-opacity:1"/></linearGradient><linearGradient id="_Linear5" x1="0" y1="0" x2="1" y2="0" gradientUnits="userSpaceOnUse" gradientTransform="matrix(-35.395849,283.16679,-283.16679,-35.395849,53.952809,-149.607784)"><stop offset="0" style="stop-color:#e9461a;stop-opacity:1"/><stop offset="0.02" style="stop-color:#e9461a;stop-opacity:1"/><stop offset="0.42" style="stop-color:#94b4df;stop-opacity:1"/><stop offset="0.87" style="stop-color:#153f98;stop-opacity:1"/><stop offset="1" style="stop-color:#153f98;stop-opacity:1"/></linearGradient></defs></svg>